{"title":"Ghost Lab - S02E04 - Afterlife Sentence.[tNe.XViD].avi","uid":5971899,"size":366251464,"categoryP":"video","categoryS":"tv_shows","magnet":"?xt=urn:btih:4111e82f30a8af9dfaec96ee90e56d1282448a26&amp;dn=Ghost+Lab+-+S02E04+-+Afterlife+Sentence.%5BtNe.XViD%5D.avi&amp;tr=udp%3A%2F%2Ftracker.openbittorrent.com%3A80&amp;tr=udp%3A%2F%2Fopen.demonii.com%3A1337&amp;tr=udp%3A%2F%2Ftracker.coppersurfer.tk%3A6969&amp;tr=udp%3A%2F%2Fexodus.desync.com%3A6969","seeders":1,"leechers":0,"uploader":"trialNerror","files":1,"time":1290320883,"description":"Episode 4 is finally here.  Not because I've been slacking off and ignoring you, but because Discovery channel is being weird.\n\nThank you for your patience. \n\n-tNe\n\n\nFormat                           : AVI\nFormat/Info                      : Audio Video Interleave\nFile size                        : 349 MiB\nDuration                         : 40mn 33s\nOverall bit rate                 : 1 204 Kbps\nWriting application              : Lavf51.13.4\nWriting library                  : VirtualDub build 32839/release\n\nVideo\nID                               : 0\nFormat                           : MPEG-4 Visual\nFormat profile                   : Advanced Simple@L5\nFormat settings, BVOP            : Yes\nFormat settings, QPel            : No\nFormat settings, GMC             : No warppoints\nFormat settings, Matrix          : Default (H.263)\nCodec ID                         : XVID\nCodec ID/Hint                    : XviD\nDuration                         : 40mn 33s\nBit rate                         : 1 080 Kbps\nWidth                            : 624 pixels\nHeight                           : 352 pixels\nDisplay aspect ratio             : 16:9\nFrame rate                       : 29.970 fps\nColor space                      : YUV\nChroma subsampling               : 4:2:0\nBit depth                        : 8 bits\nScan type                        : Progressive\nBits/(Pixel*Frame)               : 0.164\nStream size                      : 313 MiB (90%)\nWriting library                  : XviD 1.2.1 (UTC 2008-12-04)\n\nAudio\nID                               : 1\nFormat                           : MPEG Audio\nFormat version                   : Version 1\nFormat profile                   : Layer 3\nMode                             : Joint stereo\nMode extension                   : MS Stereo\nCodec ID                         : 55\nCodec ID/Hint                    : MP3\nDuration                         : 40mn 33s\nBit rate mode                    : Constant\nBit rate                         : 112 Kbps\nChannel(s)                       : 2 channels\nSampling rate                    : 48.0 KHz\nStream size                      : 32.5 MiB (9%)\nAlignment                        : Split accross interleaves\nInterleave, duration             : 33 ms (1.00 video frame)\nInterleave, preload duration     : 500 ms\nWriting library                  : LAME3.98r\n\n","torrent":{"xt":"urn:btih:4111e82f30a8af9dfaec96ee90e56d1282448a26","amp;dn":"Ghost+Lab+-+S02E04+-+Afterlife+Sentence.%5BtNe.XViD%5D.avi","amp;tr":["udp%3A%2F%2Ftracker.openbittorrent.com%3A80","udp%3A%2F%2Fopen.demonii.com%3A1337","udp%3A%2F%2Ftracker.coppersurfer.tk%3A6969","udp%3A%2F%2Fexodus.desync.com%3A6969"],"infoHash":"4111e82f30a8af9dfaec96ee90e56d1282448a26","infoHashBuffer":{"type":"Buffer","data":[65,17,232,47,48,168,175,157,250,236,150,238,144,229,109,18,130,68,138,38]},"announce":[],"urlList":[]}}